<svg width="887" height="563" viewBox="0 0 887 563" fill="none" xmlns="http://www.w3.org/2000/svg">
<path d="M812.619 0C835.519 0 846.968 0 856.535 4.17606C868.688 9.48149 879.363 20.9962 883.735 33.5156C887.176 43.37 886.379 53.8905 884.785 74.9314C872.816 232.876 823.164 385.687 740.01 520.502C728.932 538.462 723.393 547.442 714.817 553.391C703.921 560.95 688.517 563.991 675.566 561.14C665.372 558.895 656.109 552.165 637.583 538.705L82.8616 135.676C32.6011 99.1599 7.47087 80.9017 2.45058 65.4509C-4.24313 44.8497 3.08978 22.2814 20.6141 9.54915C33.7574 0 64.8201 0 126.945 0H812.619Z" fill="#4781E5"/>
</svg>
