<svg width="880" height="586" viewBox="0 0 880 586" fill="none" xmlns="http://www.w3.org/2000/svg">
<path d="M130.272 574.492C108.753 582.325 97.9941 586.241 87.5766 585.588C74.3417 584.759 60.3721 577.59 51.9819 567.321C45.3777 559.238 42.5287 549.079 36.8306 528.762C-5.9426 376.249 -11.5501 215.672 20.4801 60.5466C24.7471 39.8812 26.8806 29.5486 32.9048 21.0245C40.5582 10.1951 53.9937 2.06893 67.1385 0.318917C77.4852 -1.05857 88.4914 2.0974 110.504 8.40935L769.616 197.407C829.334 214.531 859.194 223.093 869.196 235.895C882.532 252.964 883.36 276.679 871.247 294.637C862.162 308.106 832.973 318.73 774.594 339.978L130.272 574.492Z" fill="#DC830D"/>
</svg>
