<svg width="575" height="884" viewBox="0 0 575 884" fill="none" xmlns="http://www.w3.org/2000/svg">
<path d="M18.6143 197.789C7.16454 177.957 1.43967 168.041 0.273156 157.669C-1.20883 144.491 3.42561 129.489 12.0818 119.443C18.8953 111.536 28.4049 106.966 47.4241 97.8261C190.193 29.2191 347.356 -4.18709 505.687 0.419278C526.779 1.03293 537.326 1.33975 546.766 5.79224C558.76 11.4489 569.096 23.2691 573.102 35.9104C576.255 45.8607 575.058 57.2477 572.665 80.0217L500.992 761.939C494.498 823.724 491.251 854.617 480.381 866.69C465.886 882.787 442.675 887.721 422.887 878.911C408.045 872.303 392.514 845.402 361.451 791.6L18.6143 197.789Z" fill="#8493A7"/>
</svg>
