<svg width="2647" height="525" viewBox="0 0 2647 525" fill="none" xmlns="http://www.w3.org/2000/svg">
<path d="M339.5 515.5H208.5L0 30.5H146.5L273.5 322.5L393.5 30H547.5L339.5 515.5Z" fill="black"/>
<path d="M555 30V515.5H701.5V215.5C701.5 196.3 712.167 182.167 717.5 177.5C719.786 175.5 729.716 164.754 762 161C783.5 158.5 828.5 168.833 842 177.5C841.983 177.5 855.46 154.1 909.5 60.5C888.3 39.3 844.333 31.3333 825 30H555Z" fill="black"/>
<circle cx="1125.5" cy="258" r="196" stroke="black" stroke-width="124"/>
<circle cx="1127.5" cy="261" r="61.5" stroke="black" stroke-width="39"/>
<circle cx="1625.5" cy="267" r="196" stroke="black" stroke-width="124"/>
<circle cx="1627.5" cy="270" r="61.5" stroke="black" stroke-width="39"/>
<path d="M2043.5 516.221H1905L1904.5 246.721C1904.5 178.5 1946.9 70.5205 2050.5 31.7205C2154.1 -7.07943 2243 45.5539 2274.5 76.7205C2290.5 45.7205 2356.2 -6.67948 2491 31.7205C2625.8 70.1205 2650.17 191.054 2645.5 246.721V516.221H2499V246.721C2498.33 218.554 2481.8 162.221 2421 162.221C2360.2 162.221 2344.67 218.554 2344.5 246.721V516.221H2206V246.721C2207 218.554 2192.9 162.221 2128.5 162.221C2048 162.221 2043 246.721 2043.5 246.721C2043.9 246.721 2043.67 426.387 2043.5 516.221Z" fill="black"/>
</svg>
